<svg clip-rule="evenodd" fill-rule="evenodd" height="256" image-rendering="optimizeQuality" shape-rendering="geometricPrecision" text-rendering="geometricPrecision" viewBox="0 0 256000 255998" width="256" xmlns="http://www.w3.org/2000/svg"><g id="Layer_x0020_1"><g id="_394585576"><path d="m79169 230649-60769 19339-18400 5856 25849-76349c-4338-7974-7774-16420-10221-25168-2970-10614-4468-21583-4468-32605 0-32430 12902-63175 35905-85993 23077-22890 54052-35574 86551-35574 32487 0 63446 12699 86504 35593 22993 22831 35880 53584 35880 86013 0 32426-12901 63168-35897 85983-23068 22888-54034 35576-86524 35576-10307 0-20577-1272-30564-3827-8237-2107-16230-5076-23846-8844z" fill="#eee"/><path d="m246236 121761c0-30880-12609-58843-32995-79084-20384-20241-48536-32759-79625-32759-31116 0-59283 12513-79675 32743-20403 20238-33018 48194-33018 79061 0 10362 1433 20418 4107 29974 2657 9495 6544 18484 11471 26783l-19518 57649-1543 4557 4584-1459 60032-19104c7947 4277 16451 7629 25379 9913 8994 2301 18421 3522 28144 3522 31102 0 59260-12515 79648-32742 20396-20237 33009-48192 33009-79054z" fill="#54cc61"/><path d="m115295 91231c-494-995-3348-7891-5980-14245-1682-4063-3286-7937-3601-8687-2962-7064-6237-6851-8750-6688-165 10-323 21-536 21-876 0-1738-54-2630-111-1116-71-2275-144-3370-144-1456 0-3438 302-5526 1279-1549 724-3145 1815-4608 3422-212 230-373 399-548 582-3478 3656-11059 11625-11059 26932 0 16056 11578 31324 13279 33567l-6 4 15 21 20 19c66 86 312 445 676 977 4275 6253 23932 35002 53815 46674 27110 10578 32015 9391 36397 8331 746-180 1474-357 2262-429 3549-334 9353-2763 14238-6174 4052-2830 7589-6406 8943-10172 1208-3366 1892-6493 2209-9068 460-3739 95-6682-585-7819l-9-9c-1035-1705-2824-2549-5509-3816-474-224-979-463-1466-698l2-3c-1851-942-8255-4073-13729-6660-3537-1672-6680-3109-7925-3556-1750-629-3276-1105-4912-919-1853 209-3471 1163-4970 3434l-5-2c-753 1130-2080 2826-3530 4603-2296 2813-5035 5971-6203 7298v9c-498 567-928 877-1349 927-586 71-1390-169-2503-715-712-356-1405-656-2261-1026-4329-1867-12761-5505-22370-14013-3437-3043-6462-6369-8988-9489-4091-5051-6853-9551-7952-11446-867-1486 97-2450 985-3339l-3-5c983-983 2095-2320 3212-3661 508-612 1017-1224 1636-1936l10-10c1506-1751 2129-3027 2973-4748 146-298 300-613 454-921l10-9c740-1494 930-2914 792-4245-129-1239-543-2345-1049-3334z" fill="#fffffe"/></g></g><path d="m1 0h255998v255998h-255998z" fill="none"/></svg>